<?xml version="1.0" encoding="utf-8"?>
<!-- Generator: Adobe Illustrator 18.0.0, SVG Export Plug-In . SVG Version: 6.00 Build 0)  -->
<!DOCTYPE svg PUBLIC "-//W3C//DTD SVG 1.1//EN" "http://www.w3.org/Graphics/SVG/1.1/DTD/svg11.dtd">
<svg version="1.1" id="_x2014_ÎÓÈ_x5F_1" xmlns="http://www.w3.org/2000/svg" xmlns:xlink="http://www.w3.org/1999/xlink"
	 x="0px" y="0px" viewBox="0 0 1226.5 232.4" enable-background="new 0 0 1226.5 232.4" xml:space="preserve">
<path fill="#FFFFFF" d="M295.6,42.6l0-0.2c-2.1-17.3-16.9-32.3-34.5-34.8l-0.3,0C223.1,2.5,186.8,0,150,0C113.2,0,77,2.5,39.2,7.6
	l-0.3,0C21.3,10.1,6.5,25.1,4.4,42.4l0,0.2c-5.8,48.9-5.8,98.5,0,147.4c2.1,17.4,16.9,32.3,34.5,34.8l0.3,0
	c37.8,5.1,74,7.6,110.8,7.6c36.8,0,73-2.5,110.8-7.6l0.3,0c17.6-2.5,32.4-17.4,34.5-34.8l0-0.2C301.5,141,301.5,91.5,295.6,42.6z
	 M270.3,182.6c-1.2,9.6-9.8,18.3-19.7,19.7c-34.3,4.7-67.2,6.9-100.6,6.9c-33.4,0-66.3-2.3-100.5-6.9c-9.9-1.4-18.6-10-19.7-19.7
	c-5.3-44.1-5.3-88.8,0-132.9c1.2-9.6,9.8-18.3,19.7-19.7c34.3-4.7,67.2-6.9,100.6-6.9c33.4,0,66.3,2.3,100.5,6.9
	c9.9,1.4,18.6,10,19.7,19.7C275.5,93.9,275.5,138.6,270.3,182.6z"/>
<path fill="#FFFFFF" d="M202.2,107.9l-82.8-48.8c-1.6-0.9-3.2-1.3-4.9-1.3c-5,0-9.6,4-9.6,9.6V165c0,5.6,4.6,9.6,9.6,9.6
	c1.6,0,3.3-0.4,4.9-1.3l82.8-48.8C208.5,120.8,208.5,111.7,202.2,107.9z"/>
<text transform="matrix(1 0 0 1 335.498 166.7727)" fill="#FFFFFF" font-family="'Titillium-Bold'" font-size="145.8048">Fictícia vídeos</text>
</svg>
