<?xml version="1.0" encoding="utf-8"?>
<!-- Generator: Adobe Illustrator 18.0.0, SVG Export Plug-In . SVG Version: 6.00 Build 0)  -->
<!DOCTYPE svg PUBLIC "-//W3C//DTD SVG 1.1//EN" "http://www.w3.org/Graphics/SVG/1.1/DTD/svg11.dtd">
<svg version="1.1" id="Layer_1" xmlns="http://www.w3.org/2000/svg" xmlns:xlink="http://www.w3.org/1999/xlink" x="0px" y="0px"
	 viewBox="0 0 8.6 8.6" enable-background="new 0 0 8.6 8.6" xml:space="preserve">
<g>
	<path d="M7,8.6c-0.4,0-0.8-0.2-1.1-0.5L0.5,2.5C0,1.9,0,1,0.6,0.4c0.6-0.6,1.5-0.6,2.1,0L8.1,6c0.6,0.6,0.6,1.5,0,2.1
		C7.7,8.4,7.3,8.6,7,8.6z"/>
</g>
<g>
	<path d="M1.5,8.5C1.1,8.5,0.7,8.3,0.4,8c-0.6-0.6-0.6-1.5,0-2.1l5.6-5.4C6.6,0,7.6,0,8.2,0.6c0.6,0.6,0.6,1.5,0,2.1L2.5,8.1
		C2.2,8.3,1.9,8.5,1.5,8.5z"/>
</g>
</svg>
