<?xml version="1.0" encoding="utf-8"?>
<!-- Generator: Adobe Illustrator 18.0.0, SVG Export Plug-In . SVG Version: 6.00 Build 0)  -->
<!DOCTYPE svg PUBLIC "-//W3C//DTD SVG 1.1//EN" "http://www.w3.org/Graphics/SVG/1.1/DTD/svg11.dtd">
<svg version="1.1" id="Layer_1" xmlns="http://www.w3.org/2000/svg" xmlns:xlink="http://www.w3.org/1999/xlink" x="0px" y="0px"
	 viewBox="0 0 18.3 18.3" enable-background="new 0 0 18.3 18.3" xml:space="preserve">
<g>
	<path d="M9.1,18.3c-5,0-9.1-4.1-9.1-9.1S4.1,0,9.1,0s9.1,4.1,9.1,9.1S14.2,18.3,9.1,18.3z M9.1,3C5.8,3,3,5.8,3,9.1
		s2.8,6.1,6.1,6.1s6.1-2.8,6.1-6.1S12.5,3,9.1,3z"/>
</g>
<g>
	<path d="M11.7,13.6c-0.4,0-0.8-0.2-1.1-0.5L7.8,10C7.5,9.7,7.4,9.3,7.4,9V6c0-0.8,0.7-1.5,1.5-1.5s1.5,0.7,1.5,1.5v2.4l2.5,2.7
		c0.6,0.6,0.5,1.6-0.1,2.1C12.5,13.4,12.1,13.6,11.7,13.6z"/>
</g>
</svg>
