<?xml version="1.0" encoding="utf-8"?>
<!-- Generator: Adobe Illustrator 18.0.0, SVG Export Plug-In . SVG Version: 6.00 Build 0)  -->
<!DOCTYPE svg PUBLIC "-//W3C//DTD SVG 1.1//EN" "http://www.w3.org/Graphics/SVG/1.1/DTD/svg11.dtd">
<svg version="1.1" id="Layer_1" xmlns="http://www.w3.org/2000/svg" xmlns:xlink="http://www.w3.org/1999/xlink" x="0px" y="0px"
	 viewBox="0 0 22.6 22.6" enable-background="new 0 0 22.6 22.6" xml:space="preserve">
<g>
	<path d="M7.6,8.2v6.2c0,0.7,0.6,1.1,1.2,0.9l7.5-3.1c0.7-0.3,0.7-1.4,0-1.7L8.8,7.4C8.2,7.1,7.6,7.6,7.6,8.2z"/>
</g>
<g>
	<path d="M11.3,22.6C5.1,22.6,0,17.5,0,11.3S5.1,0,11.3,0s11.3,5.1,11.3,11.3S17.5,22.6,11.3,22.6z M11.3,3C6.7,3,3,6.7,3,11.3
		s3.7,8.3,8.3,8.3s8.3-3.7,8.3-8.3S15.9,3,11.3,3z"/>
</g>
</svg>
