<?xml version="1.0" encoding="utf-8"?>
<!-- Generator: Adobe Illustrator 18.0.0, SVG Export Plug-In . SVG Version: 6.00 Build 0)  -->
<!DOCTYPE svg PUBLIC "-//W3C//DTD SVG 1.1//EN" "http://www.w3.org/Graphics/SVG/1.1/DTD/svg11.dtd">
<svg version="1.1" id="Layer_1" xmlns="http://www.w3.org/2000/svg" xmlns:xlink="http://www.w3.org/1999/xlink" x="0px" y="0px"
	 viewBox="0 0 23.7 22.7" enable-background="new 0 0 23.7 22.7" xml:space="preserve">
<g>
	<path d="M5.4,22.7c-0.3,0-0.6-0.1-0.9-0.3C4.1,22,3.9,21.5,4,20.9l1.1-6.3l-4.6-4.5C0,9.7-0.1,9.1,0.1,8.5c0.2-0.5,0.6-0.9,1.2-1
		l6.4-0.9l2.8-5.8C10.7,0.3,11.3,0,11.8,0l0,0c0.6,0,1.1,0.3,1.3,0.8L16,6.6l6.4,0.9c0.6,0.1,1,0.5,1.2,1c0.2,0.5,0,1.1-0.4,1.5
		l-4.6,4.5l1,6.1c0.1,0.2,0.1,0.1,0.1,0.3c0,0.8-0.7,1.3-1.5,1.3c0,0,0,0,0,0c-0.2,0-0.5,0.1-0.7,0l-5.7-2.9l-5.7,3
		C5.9,22.6,5.7,22.7,5.4,22.7z M4.7,10.1l3,2.9c0.4,0.3,0.5,0.8,0.4,1.3l-0.7,4.1l3.7-1.9c0.4-0.2,1-0.2,1.4,0l3.7,1.9l-0.7-4.1
		c-0.1-0.5,0.1-1,0.4-1.3l3-2.9l-4.1-0.6c-0.5-0.1-0.9-0.4-1.1-0.8l-1.8-3.7L10,8.6C9.8,9.1,9.3,9.4,8.9,9.5L4.7,10.1z"/>
</g>
</svg>
