<?xml version="1.0" encoding="utf-8"?>
<!-- Generator: Adobe Illustrator 18.0.0, SVG Export Plug-In . SVG Version: 6.00 Build 0)  -->
<!DOCTYPE svg PUBLIC "-//W3C//DTD SVG 1.1//EN" "http://www.w3.org/Graphics/SVG/1.1/DTD/svg11.dtd">
<svg version="1.1" id="Layer_1" xmlns="http://www.w3.org/2000/svg" xmlns:xlink="http://www.w3.org/1999/xlink" x="0px" y="0px"
	 viewBox="0 0 23.9 18.5" enable-background="new 0 0 23.9 18.5" xml:space="preserve">
<g>
	<path d="M11.9,18.5c-2.5,0-4.8-1-6.5-2.7l-4.6-4.6c-1-1-1-2.8,0-3.8l4.6-4.6C7.1,1,9.5,0,11.9,0s4.8,1,6.5,2.7l4.6,4.6
		c0.5,0.5,0.8,1.2,0.8,1.9s-0.3,1.4-0.8,1.9l-4.6,4.6C16.7,17.5,14.4,18.5,11.9,18.5z M3.1,9.2l4.4,4.4c1.2,1.2,2.7,1.8,4.4,1.8
		s3.2-0.6,4.4-1.8l4.4-4.4l-4.4-4.4C15.2,3.6,13.6,3,11.9,3S8.7,3.6,7.5,4.8L3.1,9.2z"/>
</g>
<g>
	<path d="M11.9,4.8c-2.5,0-4.5,2-4.5,4.5c0,2.5,2,4.5,4.5,4.5s4.5-2,4.5-4.5C16.4,6.8,14.4,4.8,11.9,4.8z M12.8,9.6
		c-0.9,0-1.7-0.7-1.7-1.7c0-0.9,0.7-1.7,1.7-1.7c0.9,0,1.7,0.7,1.7,1.7C14.4,8.9,13.7,9.6,12.8,9.6z"/>
</g>
</svg>
